# Blender 4.4.0
# www.blender.org
o base_standard_01.007
v -3.807917 0.297617 -8.192081
v -3.807917 0.297617 -11.192081
v -4.007917 -0.452383 -8.192081
v -4.007917 -0.452383 -11.192081
v -3.999753 0.297617 -8.192081
v -4.007917 0.289452 -8.192081
v -4.005526 0.295225 -8.192081
v -4.007917 0.289452 -11.192081
v -3.999753 0.297617 -11.192081
v -4.005526 0.295225 -11.192081
v 2.192083 0.297617 3.807918
v -0.807917 0.297617 3.807918
v 2.192083 -0.452383 4.007917
v -0.807917 -0.452383 4.007917
v 2.192083 0.297617 3.999753
v 2.192083 0.289452 4.007917
v 2.192083 0.295225 4.005527
v -0.807917 0.289452 4.007917
v -0.807917 0.297617 3.999753
v -0.807917 0.295225 4.005527
v -0.807917 0.297617 3.807919
v -0.807917 -0.452383 4.007918
v -0.807917 0.297617 3.999753
v -0.807917 0.289452 4.007918
v -0.807917 0.295225 4.005527
v -1.807916 0.297617 3.807919
v -1.890756 -0.452383 4.007918
v -1.887374 0.297617 3.999753
v -1.889765 0.295225 4.005527
v -1.890756 0.289452 4.007918
v -3.807917 0.297617 0.807918
v -4.007916 -0.452383 0.807918
v -3.999752 0.297617 0.807918
v -4.007916 0.289452 0.807918
v -4.005525 0.295225 0.807918
v -3.807916 0.297617 1.807917
v -4.007916 -0.452383 1.890756
v -3.999752 0.297617 1.887375
v -4.005525 0.295225 1.889766
v -4.007916 0.289452 1.890756
v -2.949336 -0.452383 2.949337
v -2.943563 0.297617 2.943564
v -2.949336 0.289452 2.949337
v -2.807916 0.297617 2.807917
v -2.947645 0.295225 2.947646
v 5.192083 0.297617 3.807918
v 2.192083 0.297617 3.807918
v 5.192083 -0.452383 4.007917
v 2.192083 -0.452383 4.007917
v 5.192083 0.297617 3.999753
v 5.192083 0.289452 4.007917
v 5.192083 0.295225 4.005527
v 2.192083 0.289452 4.007917
v 2.192083 0.297617 3.999753
v 2.192083 0.295225 4.005527
v 8.192083 0.297617 3.807918
v 5.192083 0.297617 3.807918
v 8.192083 -0.452383 4.007918
v 5.192083 -0.452383 4.007917
v 8.192083 0.297617 3.999753
v 8.192083 0.289452 4.007918
v 8.192083 0.295225 4.005527
v 5.192083 0.289452 4.007917
v 5.192083 0.297617 3.999753
v 5.192083 0.295225 4.005527
v 11.192083 0.297617 3.807918
v 8.192083 0.297617 3.807918
v 11.192083 -0.452383 4.007918
v 8.192083 -0.452383 4.007918
v 11.192083 0.297617 3.999753
v 11.192083 0.289452 4.007918
v 11.192083 0.295225 4.005527
v 8.192083 0.289452 4.007918
v 8.192083 0.297617 3.999753
v 8.192083 0.295225 4.005527
v -3.807917 0.297617 0.807918
v -3.807917 0.297617 -2.192082
v -4.007917 -0.452383 0.807918
v -4.007917 -0.452383 -2.192082
v -3.999752 0.297617 0.807918
v -4.007917 0.289452 0.807918
v -4.005526 0.295225 0.807918
v -4.007917 0.289452 -2.192082
v -3.999752 0.297617 -2.192082
v -4.005526 0.295225 -2.192082
v -3.807917 0.297617 -2.192082
v -3.807917 0.297617 -5.192082
v -4.007917 -0.452383 -2.192082
v -4.007917 -0.452383 -5.192082
v -3.999752 0.297617 -2.192082
v -4.007917 0.289452 -2.192082
v -4.005526 0.295225 -2.192082
v -4.007917 0.289452 -5.192082
v -3.999752 0.297617 -5.192082
v -4.005526 0.295225 -5.192082
v -3.807917 0.297617 -5.192081
v -3.807916 0.297617 -8.192081
v -4.007917 -0.452383 -5.192081
v -4.007916 -0.452383 -8.192081
v -3.999752 0.297617 -5.192081
v -4.007917 0.289452 -5.192081
v -4.005526 0.295225 -5.192081
v -4.007916 0.289452 -8.192081
v -3.999752 0.297617 -8.192081
v -4.005525 0.295225 -8.192081
vn -0.0175 0.9998 -0.0000
vn -0.7071 0.7071 -0.0000
vn -0.0121 0.9999 -0.0000
vn -1.0000 0.0081 -0.0001
vn -0.0000 1.0000 -0.0000
vn -1.0000 -0.0000 -0.0000
vn 0.0001 0.9998 0.0175
vn -0.0000 0.7071 0.7071
vn -0.0000 0.9999 0.0121
vn -0.0000 0.0081 1.0000
vn -0.0000 -0.0000 1.0000
vn -0.0000 0.9999 0.0152
vn -0.0001 0.0066 1.0000
vn -0.0000 0.7051 0.7091
vn -0.0000 0.7068 0.7074
vn -0.0000 0.9999 0.0167
vn -0.0152 0.9999 -0.0001
vn -0.0168 0.9999 -0.0000
vn -1.0000 0.0067 -0.0000
vn -0.7092 0.7051 -0.0000
vn -0.7074 0.7068 -0.0000
vn -0.0117 0.9999 0.0117
vn -0.5000 0.7071 0.5000
vn -0.5014 0.7052 0.5014
vn -0.2607 0.9295 0.2607
vn -0.7071 0.0067 0.7071
vn -0.7071 0.0033 0.7071
vn -0.0117 0.9999 0.0118
vn -0.7071 -0.0000 0.7071
vn -0.7071 0.0045 0.7071
vn -0.0000 0.9998 0.0175
vn -0.0001 0.0081 1.0000
vn -1.0000 0.0081 -0.0000
vn -1.0000 0.0032 -0.0000
vn -0.0000 0.0032 1.0000
vn -1.0000 0.0031 -0.0000
vt 0.000065 0.251940
vt 0.999935 0.249858
vt 0.999935 0.251941
vt 0.000065 0.249858
vt 0.999935 0.247775
vt 0.999935 0.315878
vt 0.000065 0.315877
vt 0.000065 0.000529
vt 0.999935 0.000529
vt 0.666645 0.315877
vt 0.639036 0.000529
vt 0.639366 0.249858
vt 0.640163 0.251941
vt 0.640163 0.251941
vt 0.500000 0.249858
vt 0.500000 0.251941
vt 0.500000 0.315877
vt 0.500000 0.247775
vt 0.000065 0.247775
vt 0.500000 0.000529
vt 0.639036 0.247775
vt 0.639036 0.247775
vt 0.639366 0.249858
s 1
f 9/1/1 7/2/2 5/3/3
f 10/4/2 6/5/4 7/2/2
f 9/1/1 1/6/5 2/7/5
f 6/5/4 4/8/6 3/9/6
f 19/1/7 17/2/8 15/3/9
f 20/4/8 16/5/10 17/2/8
f 19/1/7 11/6/5 12/7/5
f 16/5/10 14/8/11 13/9/11
f 26/10/5 23/3/12 21/6/5
f 24/5/13 27/11/11 22/9/11
f 29/12/14 24/5/13 25/2/15
f 28/13/16 25/2/15 23/3/12
f 36/10/5 33/3/17 38/14/18
f 37/11/6 34/5/19 32/9/6
f 34/5/19 39/12/20 35/2/21
f 35/2/21 38/13/18 33/3/17
f 28/3/22 45/15/23 29/2/24
f 36/7/5 42/16/25 44/17/5
f 39/4/24 43/18/26 45/15/23
f 42/16/25 26/6/5 44/17/5
f 29/2/24 43/18/26 30/5/27
f 38/1/28 45/15/23 42/16/25
f 43/18/26 27/9/29 30/5/27
f 40/19/30 41/20/29 43/18/26
f 54/1/31 52/2/8 50/3/9
f 55/4/8 51/5/32 52/2/8
f 54/1/31 46/6/5 47/7/5
f 51/5/32 49/8/11 48/9/11
f 64/1/31 62/2/8 60/3/9
f 65/4/8 61/5/10 62/2/8
f 64/1/31 56/6/5 57/7/5
f 61/5/10 59/8/11 58/9/11
f 74/1/31 72/2/8 70/3/9
f 75/4/8 71/5/10 72/2/8
f 74/1/31 66/6/5 67/7/5
f 71/5/10 69/8/11 68/9/11
f 84/1/1 82/2/2 80/3/3
f 85/4/2 81/5/33 82/2/2
f 84/1/1 76/6/5 77/7/5
f 81/5/33 79/8/6 78/9/6
f 94/1/1 92/2/2 90/3/3
f 95/4/2 91/5/33 92/2/2
f 94/1/1 86/6/5 87/7/5
f 91/5/33 89/8/6 88/9/6
f 104/1/1 102/2/2 100/3/3
f 105/4/2 101/5/33 102/2/2
f 104/1/1 96/6/5 97/7/5
f 101/5/33 99/8/6 98/9/6
f 9/1/1 10/4/2 7/2/2
f 10/4/2 8/19/34 6/5/4
f 9/1/1 5/3/3 1/6/5
f 6/5/4 8/19/34 4/8/6
f 19/1/7 20/4/8 17/2/8
f 20/4/8 18/19/35 16/5/10
f 19/1/7 15/3/9 11/6/5
f 16/5/10 18/19/35 14/8/11
f 26/10/5 28/14/16 23/3/12
f 24/5/13 30/21/35 27/11/11
f 29/12/14 30/22/35 24/5/13
f 28/13/16 29/23/14 25/2/15
f 36/10/5 31/6/5 33/3/17
f 37/11/6 40/21/34 34/5/19
f 34/5/19 40/22/34 39/12/20
f 35/2/21 39/23/20 38/13/18
f 28/3/22 42/16/25 45/15/23
f 36/7/5 38/1/28 42/16/25
f 39/4/24 40/19/30 43/18/26
f 42/16/25 28/3/22 26/6/5
f 29/2/24 45/15/23 43/18/26
f 38/1/28 39/4/24 45/15/23
f 43/18/26 41/20/29 27/9/29
f 40/19/30 37/8/29 41/20/29
f 54/1/31 55/4/8 52/2/8
f 55/4/8 53/19/35 51/5/32
f 54/1/31 50/3/9 46/6/5
f 51/5/32 53/19/35 49/8/11
f 64/1/31 65/4/8 62/2/8
f 65/4/8 63/19/35 61/5/10
f 64/1/31 60/3/9 56/6/5
f 61/5/10 63/19/35 59/8/11
f 74/1/31 75/4/8 72/2/8
f 75/4/8 73/19/35 71/5/10
f 74/1/31 70/3/9 66/6/5
f 71/5/10 73/19/35 69/8/11
f 84/1/1 85/4/2 82/2/2
f 85/4/2 83/19/36 81/5/33
f 84/1/1 80/3/3 76/6/5
f 81/5/33 83/19/36 79/8/6
f 94/1/1 95/4/2 92/2/2
f 95/4/2 93/19/36 91/5/33
f 94/1/1 90/3/3 86/6/5
f 91/5/33 93/19/36 89/8/6
f 104/1/1 105/4/2 102/2/2
f 105/4/2 103/19/36 101/5/33
f 104/1/1 100/3/3 96/6/5
f 101/5/33 103/19/36 99/8/6
